<?xml version="1.0" encoding="iso-8859-1"?>
<!-- Generator: Adobe Illustrator 18.0.0, SVG Export Plug-In . SVG Version: 6.00 Build 0)  -->
<!DOCTYPE svg PUBLIC "-//W3C//DTD SVG 1.1//EN" "http://www.w3.org/Graphics/SVG/1.1/DTD/svg11.dtd">
<svg version="1.1" id="Capa_1" xmlns="http://www.w3.org/2000/svg" xmlns:xlink="http://www.w3.org/1999/xlink" x="0px" y="0px"
	 viewBox="0 0 253.742 253.742" style="enable-background:new 0 0 253.742 253.742;" xml:space="preserve">
<path d="M212.824,22.058c-2.584,0-5.312,0.036-8.185,0.074c-2.221,0.029-4.535,0.06-6.933,0.074l-0.001-15.218H56.037l0,15.218
	c-2.397-0.015-4.711-0.045-6.933-0.074c-2.873-0.038-5.602-0.074-8.185-0.074C18.531,22.058,0,24.878,0,59.538
	c0,16.102,11.871,36.514,35.283,60.668c8.953,9.237,17.83,17.204,24.266,22.707c0.195,0.514,0.388,1.026,0.604,1.544
	c4.629,11.098,14.999,24.927,38.197,30.451v14.801H66.9v57.045h119.942v-57.045h-31.449v-14.801
	c23.198-5.524,33.567-19.354,38.197-30.451c0.216-0.518,0.409-1.03,0.604-1.544c6.436-5.503,15.313-13.47,24.266-22.707
	c23.412-24.154,35.283-44.566,35.283-60.668C253.742,24.878,235.211,22.058,212.824,22.058z M56.032,119.592
	c-0.001,0.018-0.003,0.045-0.004,0.063C36.736,101.428,15,76.658,15,59.538c0-13.685,3.052-17.495,5.348-19.17
	c3.765-2.748,10.946-3.311,20.57-3.311c2.521,0,5.183,0.035,7.986,0.072c2.304,0.03,4.669,0.062,7.131,0.077L56.032,119.592z
	 M179.531,139.188c-5.265,12.105-16.301,19.556-32.8,22.145l-6.337,0.994v42.382h31.449v27.045H81.9v-27.045h31.449v-42.382
	l-6.337-0.994c-16.499-2.589-27.535-10.039-32.8-22.145c-4.087-9.397-3.231-18.373-3.226-18.425l0.047-0.417l0.004-98.358h111.671
	l0.003,97.938l0.043,0.8C182.762,120.815,183.618,129.791,179.531,139.188z M197.714,119.644c-0.001-0.016-0.003-0.038-0.004-0.053
	l-0.003-82.385c2.463-0.016,4.827-0.047,7.131-0.077c2.803-0.037,5.465-0.072,7.986-0.072c9.624,0,16.806,0.563,20.57,3.311
	c2.296,1.675,5.348,5.485,5.348,19.17C238.742,76.637,217.005,101.41,197.714,119.644z"/>
<g>
</g>
<g>
</g>
<g>
</g>
<g>
</g>
<g>
</g>
<g>
</g>
<g>
</g>
<g>
</g>
<g>
</g>
<g>
</g>
<g>
</g>
<g>
</g>
<g>
</g>
<g>
</g>
<g>
</g>
</svg>
